<svg width="32" height="10" viewBox="0 0 32 10" fill="none" xmlns="http://www.w3.org/2000/svg">
<path d="M1.508 9.06V7.692H3.704C4.104 7.692 4.408 7.584 4.616 7.368C4.824 7.144 4.928 6.84 4.928 6.456C4.928 6.072 4.824 5.776 4.616 5.568C4.408 5.352 4.104 5.244 3.704 5.244H1.508V4.2H3.584C4.168 4.2 4.688 4.272 5.144 4.416C5.608 4.552 5.968 4.784 6.224 5.112C6.488 5.44 6.62 5.88 6.62 6.432V6.6C6.62 7.12 6.504 7.564 6.272 7.932C6.048 8.292 5.708 8.572 5.252 8.772C4.804 8.964 4.248 9.06 3.584 9.06H1.508ZM0.08 9.06V0.18H1.748V9.06H0.08ZM1.508 4.968V3.924H3.38C3.788 3.924 4.088 3.816 4.28 3.6C4.472 3.384 4.568 3.096 4.568 2.736C4.568 2.376 4.472 2.088 4.28 1.872C4.088 1.656 3.788 1.548 3.38 1.548H1.508V0.18H3.224C4.216 0.18 4.968 0.388 5.48 0.804C6 1.22 6.26 1.816 6.26 2.592V2.76C6.26 3.304 6.128 3.74 5.864 4.068C5.608 4.388 5.252 4.62 4.796 4.764C4.34 4.9 3.816 4.968 3.224 4.968H1.508ZM8.84172 9V0.24H10.5097V9H8.84172ZM10.2697 9V7.56H14.2417V9H10.2697ZM10.2697 5.268V3.828H13.9297V5.268H10.2697ZM10.2697 1.68V0.24H14.1457V1.68H10.2697ZM18.2182 9V1.5H19.9222V9H18.2182ZM15.6862 1.74V0.24H22.4542V1.74H15.6862ZM22.7121 9L25.7001 0.24H28.4841L31.5561 9H29.8041L27.2001 1.404L27.8121 1.668H26.3121L26.9361 1.404L24.4161 9H22.7121ZM24.8001 6.672L25.3401 5.232H28.8921L29.4201 6.672H24.8001Z" fill="#4AAA99"/>
</svg>
