<svg width="24" height="24" viewBox="0 0 24 24" fill="none" xmlns="http://www.w3.org/2000/svg">
<path d="M10.9395 4.05882H3.93945C3.40902 4.05882 2.90031 4.26953 2.52524 4.64461C2.15017 5.01968 1.93945 5.52839 1.93945 6.05882V20.0588C1.93945 20.5893 2.15017 21.098 2.52524 21.473C2.90031 21.8481 3.40902 22.0588 3.93945 22.0588H17.9395C18.4699 22.0588 18.9786 21.8481 19.3537 21.473C19.7287 21.098 19.9395 20.5893 19.9395 20.0588V13.0588M18.4395 2.55882C18.8373 2.161 19.3768 1.9375 19.9395 1.9375C20.5021 1.9375 21.0416 2.161 21.4395 2.55882C21.8373 2.95665 22.0608 3.49621 22.0608 4.05882C22.0608 4.62143 21.8373 5.161 21.4395 5.55882L11.9395 15.0588L7.93945 16.0588L8.93945 12.0588L18.4395 2.55882Z" stroke="#616D6C" stroke-width="2" stroke-linecap="round" stroke-linejoin="round"/>
</svg>
