<svg width="12" height="12" viewBox="0 0 12 12" fill="none" xmlns="http://www.w3.org/2000/svg">
<path fill-rule="evenodd" clip-rule="evenodd" d="M2.78571 0C1.2472 0 0 1.2472 0 2.78571V6.64286C0 8.18137 1.2472 9.42857 2.78571 9.42857H6.64286C8.18137 9.42857 9.42857 8.18137 9.42857 6.64286V2.78571C9.42857 1.2472 8.18137 0 6.64286 0H2.78571ZM1.28571 2.78571C1.28571 1.95729 1.95729 1.28571 2.78571 1.28571H6.64286C7.47129 1.28571 8.14286 1.95729 8.14286 2.78571V6.64286C8.14286 7.47129 7.47129 8.14286 6.64286 8.14286H2.78571C1.95729 8.14286 1.28571 7.47129 1.28571 6.64286V2.78571Z" fill="#8B8F97"/>
<path d="M3.46546 11.2592C3.04769 10.8725 3.41253 10.2857 3.98177 10.2857C4.19051 10.2857 4.38578 10.3762 4.56274 10.4869C4.79311 10.631 5.06542 10.7143 5.3572 10.7143H9.21431C9.62309 10.7143 9.99363 10.5509 10.2641 10.2857H10.2857V10.2641C10.5509 9.99363 10.7143 9.62309 10.7143 9.21432V5.35721C10.7143 5.06543 10.631 4.79311 10.4869 4.56274C10.3762 4.38578 10.2857 4.19052 10.2857 3.98178C10.2857 3.41253 10.8725 3.04769 11.2592 3.46545C11.7191 3.96224 12 4.6269 12 5.35721V9.21432C12 10.7529 10.7529 12 9.21431 12H5.3572C4.6269 12 3.96224 11.7191 3.46546 11.2592Z" fill="#8B8F97"/>
</svg>
