<svg width="56" height="56" viewBox="0 0 56 56" fill="none" xmlns="http://www.w3.org/2000/svg">
<circle cx="28" cy="28" r="28" fill="white"/>
<path d="M37.8765 18.7183C36.0288 17.8701 34.0787 17.2653 32.0753 16.919C32.0571 16.9156 32.0385 16.918 32.0217 16.9259C32.0049 16.9338 31.9911 16.9468 31.9822 16.963C31.7316 17.4087 31.454 17.99 31.2598 18.4468C29.0692 18.1188 26.8898 18.1188 24.7442 18.4468C24.55 17.9798 24.2624 17.4087 24.0107 16.963C24.0014 16.9472 23.9875 16.9345 23.9709 16.9267C23.9543 16.9188 23.9356 16.9162 23.9175 16.9191C21.9139 17.2646 19.9638 17.8694 18.1163 18.7181C18.1005 18.7249 18.0872 18.7364 18.0782 18.751C14.3834 24.271 13.3712 29.6553 13.8678 34.9728C13.8692 34.9858 13.8732 34.9985 13.8796 35.0099C13.8859 35.0213 13.8945 35.0314 13.9049 35.0395C16.3426 36.8297 18.7039 37.9165 21.0214 38.6368C21.0394 38.6422 21.0587 38.6419 21.0765 38.636C21.0944 38.6301 21.1101 38.6191 21.1214 38.604C21.6696 37.8554 22.1582 37.066 22.5773 36.236C22.5831 36.2246 22.5863 36.2121 22.5869 36.1994C22.5875 36.1866 22.5854 36.1739 22.5808 36.162C22.5761 36.1502 22.569 36.1394 22.5599 36.1305C22.5507 36.1217 22.5398 36.1149 22.5279 36.1104C21.7527 35.8164 21.0147 35.4579 20.3047 35.0509C20.2917 35.0433 20.2808 35.0325 20.273 35.0197C20.2651 35.0068 20.2606 34.9924 20.2597 34.9774C20.2588 34.9624 20.2616 34.9475 20.2679 34.9337C20.2741 34.9201 20.2837 34.9082 20.2956 34.8992C20.445 34.7872 20.5945 34.6709 20.7371 34.5531C20.7498 34.5426 20.7651 34.536 20.7814 34.5337C20.7977 34.5315 20.8143 34.5339 20.8293 34.5407C25.4936 36.6701 30.543 36.6701 35.1522 34.5407C35.1673 34.5334 35.1839 34.5307 35.2004 34.5328C35.217 34.5347 35.2325 34.5413 35.2455 34.552C35.3882 34.6694 35.5376 34.7872 35.6882 34.8992C35.7001 34.9082 35.7097 34.9199 35.7161 34.9335C35.7224 34.9472 35.7252 34.962 35.7246 34.9769C35.7238 34.992 35.7194 35.0065 35.7116 35.0194C35.7039 35.0322 35.6931 35.0429 35.6803 35.0507C34.97 35.4655 34.226 35.8196 33.4562 36.1092C33.4441 36.1138 33.4332 36.1209 33.4242 36.1299C33.4152 36.1389 33.4082 36.1499 33.4036 36.1617C33.399 36.1738 33.3971 36.1864 33.3977 36.1993C33.3985 36.2121 33.4019 36.2246 33.4077 36.236C33.8357 37.0649 34.3245 37.8543 34.8625 38.6029C34.8734 38.6183 34.8891 38.6298 34.907 38.636C34.9249 38.642 34.9443 38.6423 34.9624 38.6368C37.2912 37.9164 39.6525 36.8296 42.0902 35.0395C42.1007 35.0317 42.1094 35.0219 42.1159 35.0106C42.1222 34.9992 42.1262 34.9867 42.1273 34.9739C42.7215 28.8261 41.132 23.4861 37.9136 18.7521C37.9057 18.7367 37.8925 18.7247 37.8765 18.7181V18.7183ZM23.2738 31.7349C21.8695 31.7349 20.7124 30.4457 20.7124 28.8624C20.7124 27.2792 21.8471 25.9899 23.2739 25.9899C24.7117 25.9899 25.8575 27.2905 25.8351 28.8625C25.8351 30.4457 24.7004 31.7349 23.2738 31.7349ZM32.7438 31.7349C31.3396 31.7349 30.1825 30.4457 30.1825 28.8624C30.1825 27.2792 31.3171 25.9899 32.7438 25.9899C34.1817 25.9899 35.3275 27.2905 35.305 28.8625C35.305 30.4457 34.1817 31.7349 32.7438 31.7349Z" fill="#27282B"/>
</svg>
