<svg width="169" height="17" viewBox="0 0 169 17" fill="none" xmlns="http://www.w3.org/2000/svg">
<path d="M4.37005 16.3512L5.27886 9.9792H15.1211L15.6432 6.3072H5.80095L6.12967 3.9312H16.2233L16.7454 0.2808H2.28171L0 16.3512H4.37005ZM27.0324 16.632C35.9272 16.632 37.0681 11.5344 37.4548 8.7696C37.5321 8.1648 37.5515 7.6032 37.5515 7.02C37.5515 4.1256 35.8885 0 28.1153 0H27.2838C18.447 0 17.1901 5.0544 16.8808 7.6896C16.7841 8.4672 16.7841 9.0072 16.7841 9.504C16.7841 12.3768 18.389 16.632 26.2009 16.632H27.0324ZM26.781 12.7224C22.4303 12.7224 21.4828 10.584 21.4828 8.8344C21.4828 8.5968 21.4828 8.3808 21.5022 8.1C21.6569 6.264 22.7591 3.888 27.5545 3.888C31.8279 3.888 32.9107 5.7672 32.9107 7.5384C32.9107 7.8624 32.9107 8.0784 32.8527 8.4024C32.6013 10.368 31.5185 12.7224 26.781 12.7224ZM42.2889 16.3512L43.101 10.6488H48.7666C51.0097 10.6488 51.6091 11.6208 51.3577 13.5L51.1063 15.2712C51.0097 15.9408 51.0677 16.1784 51.145 16.3512H55.6118L55.6311 16.2432C55.5731 15.984 55.4571 15.5736 55.6118 14.4288L55.9985 11.7288C56.3079 9.6552 55.1283 8.64 53.8328 8.1864C55.109 7.7976 57.004 6.6528 57.004 4.1688C57.004 2.0736 55.8245 0.2808 51.5898 0.2808H40.1812L37.8995 16.3512H42.2889ZM50.2749 7.0848H43.5845L44.0485 3.9312H50.6809C51.8605 3.9312 52.2859 4.4928 52.2859 5.3352C52.2859 6.1992 51.7445 7.0848 50.2749 7.0848ZM71.9898 16.3512L72.5118 12.6144H61.9348L62.3215 9.9792H72.4925L73.0146 6.3072H62.8436L63.1723 3.9312H73.5754L74.0974 0.2808H59.363L57.0813 16.3512H71.9898ZM78.1968 16.3512L79.1056 9.9792H88.9479L89.47 6.3072H79.6277L79.9564 3.9312H90.05L90.5721 0.2808H76.1084L73.8267 16.3512H78.1968ZM94.5361 16.3512L95.3482 10.6488H101.014C103.257 10.6488 103.856 11.6208 103.605 13.5L103.354 15.2712C103.257 15.9408 103.315 16.1784 103.392 16.3512H107.859L107.878 16.2432C107.82 15.984 107.704 15.5736 107.859 14.4288L108.246 11.7288C108.555 9.6552 107.376 8.64 106.08 8.1864C107.356 7.7976 109.251 6.6528 109.251 4.1688C109.251 2.0736 108.072 0.2808 103.837 0.2808H92.4284L90.1467 16.3512H94.5361ZM102.522 7.0848H95.8317L96.2957 3.9312H102.928C104.108 3.9312 104.533 4.4928 104.533 5.3352C104.533 6.1992 103.992 7.0848 102.522 7.0848ZM120.041 16.632C128.936 16.632 130.077 11.5344 130.463 8.7696C130.541 8.1648 130.56 7.6032 130.56 7.02C130.56 4.1256 128.897 0 121.124 0H120.292C111.456 0 110.199 5.0544 109.889 7.6896C109.793 8.4672 109.793 9.0072 109.793 9.504C109.793 12.3768 111.398 16.632 119.209 16.632H120.041ZM119.79 12.7224C115.439 12.7224 114.491 10.584 114.491 8.8344C114.491 8.5968 114.491 8.3808 114.511 8.1C114.665 6.264 115.768 3.888 120.563 3.888C124.836 3.888 125.919 5.7672 125.919 7.5384C125.919 7.8624 125.919 8.0784 125.861 8.4024C125.61 10.368 124.527 12.7224 119.79 12.7224ZM135.239 16.3512L136.767 5.508L144.618 16.3512H148.93L151.211 0.2808H146.88L145.43 10.6056L138.082 0.2808H133.19L130.908 16.3512H135.239ZM160.88 16.3512L162.62 4.0824H168.556L169.098 0.2808H152.758L152.236 4.0824H158.173L156.432 16.3512H160.88Z" fill="black"/>
</svg>
