<svg width="172" height="24" viewBox="0 0 172 24" fill="none" xmlns="http://www.w3.org/2000/svg">
<rect x="0.5" y="0.5" width="171" height="23" rx="5.5" fill="#27282B" stroke="#303236"/>
<path d="M8.8623 15.9999H10.1103L10.7583 12.6639H12.8343C13.6743 12.6639 14.3703 12.4599 14.9223 12.0279C15.4743 11.5959 15.8223 11.0079 15.9663 10.2519C16.1103 9.50792 15.9303 8.88392 15.4383 8.36792C14.9463 7.86392 14.2743 7.59992 13.4223 7.59992H10.4943L8.8623 15.9999ZM10.9623 11.5839L11.5383 8.67992H13.2543C13.7823 8.67992 14.1783 8.84792 14.4423 9.15992C14.7063 9.48392 14.7903 9.84392 14.7183 10.2519C14.6343 10.6599 14.4423 10.9839 14.1543 11.2239C13.8543 11.4639 13.4463 11.5839 12.9303 11.5839H10.9623Z" fill="#8A8F98"/>
<path d="M18.6804 16.0959C19.6884 16.0959 20.5284 15.7599 21.2004 15.0639C21.8724 14.3799 22.2084 13.5279 22.1964 12.5199C22.1844 11.7519 21.9204 11.1159 21.3924 10.6119C20.8644 10.1079 20.2044 9.85592 19.4004 9.85592C18.3924 9.85592 17.5524 10.2039 16.8804 10.8879C16.2084 11.5839 15.8724 12.4239 15.8844 13.4319C15.8964 14.1999 16.1604 14.8359 16.6884 15.3399C17.2044 15.8439 17.8644 16.0959 18.6804 16.0959ZM18.7764 15.0759C18.2724 15.0759 17.8644 14.9199 17.5524 14.5959C17.2404 14.2839 17.0844 13.8639 17.0844 13.3479C17.0844 12.6639 17.2884 12.0759 17.7084 11.5959C18.1284 11.1159 18.6684 10.8759 19.3164 10.8759C19.8084 10.8759 20.2164 11.0439 20.5284 11.3559C20.8404 11.6799 20.9964 12.0999 20.9964 12.6039C20.9964 13.2999 20.7804 13.8759 20.3604 14.3559C19.9404 14.8359 19.4124 15.0759 18.7764 15.0759Z" fill="#8A8F98"/>
<path d="M23.6524 15.9999H24.7324L26.9884 11.4879L27.4804 15.9999H28.5604L31.6084 9.95192H30.4324L28.3204 14.4519L27.8404 9.95192H26.7364L24.4924 14.4519L24.1204 9.95192H22.9564L23.6524 15.9999Z" fill="#8A8F98"/>
<path d="M34.9029 9.85592C34.0389 9.85592 33.2829 10.1319 32.6589 10.6839C32.0229 11.2359 31.6389 11.9439 31.4949 12.8199C31.3389 13.7439 31.4949 14.5239 31.9749 15.1479C32.4549 15.7839 33.1509 16.0959 34.0869 16.0959C34.7949 16.0959 35.4309 15.9039 35.9829 15.5199C36.5349 15.1359 36.9069 14.6319 37.0989 14.0319H35.9229C35.5989 14.7519 35.0469 15.0999 34.2549 15.0999C33.6789 15.0999 33.2469 14.9319 32.9589 14.5839C32.6589 14.2359 32.5269 13.7679 32.5749 13.1799H37.1949C37.1949 13.1679 37.2069 13.0959 37.2429 12.9639L37.3029 12.7239C37.4709 11.9079 37.3389 11.2239 36.8949 10.6719C36.4389 10.1319 35.7789 9.85592 34.9029 9.85592ZM36.1989 12.3279H32.7429C32.8869 11.8479 33.1389 11.4639 33.4989 11.1999C33.8469 10.9359 34.2549 10.7919 34.7349 10.7919C35.2389 10.7919 35.6229 10.9359 35.8869 11.2119C36.1509 11.4999 36.2469 11.8719 36.1989 12.3279Z" fill="#8A8F98"/>
<path d="M42.4826 10.9599V9.95192H41.8346C41.0186 9.95192 40.4066 10.3479 39.9986 11.1159L40.2266 9.95192H39.0626L37.8866 15.9999H39.0506L39.5906 13.2639C39.8786 11.7279 40.5146 10.9599 41.4986 10.9599H42.4826Z" fill="#8A8F98"/>
<path d="M45.649 9.85592C44.785 9.85592 44.029 10.1319 43.405 10.6839C42.769 11.2359 42.385 11.9439 42.241 12.8199C42.085 13.7439 42.241 14.5239 42.721 15.1479C43.201 15.7839 43.897 16.0959 44.833 16.0959C45.541 16.0959 46.177 15.9039 46.729 15.5199C47.281 15.1359 47.653 14.6319 47.845 14.0319H46.669C46.345 14.7519 45.793 15.0999 45.001 15.0999C44.425 15.0999 43.993 14.9319 43.705 14.5839C43.405 14.2359 43.273 13.7679 43.321 13.1799H47.941C47.941 13.1679 47.953 13.0959 47.989 12.9639L48.049 12.7239C48.217 11.9079 48.085 11.2239 47.641 10.6719C47.185 10.1319 46.525 9.85592 45.649 9.85592ZM46.945 12.3279H43.489C43.633 11.8479 43.885 11.4639 44.245 11.1999C44.593 10.9359 45.001 10.7919 45.481 10.7919C45.985 10.7919 46.369 10.9359 46.633 11.2119C46.897 11.4999 46.993 11.8719 46.945 12.3279Z" fill="#8A8F98"/>
<path d="M51.1767 16.0959C51.5727 16.0959 51.9566 16.0119 52.3406 15.8319C52.7246 15.6519 53.0366 15.4119 53.2766 15.0999L53.0966 15.9999H54.2607L55.9407 7.41992H54.7766L54.1046 10.8399C53.9846 10.5519 53.7687 10.3119 53.4566 10.1319C53.1446 9.95192 52.7966 9.85592 52.3886 9.85592C51.4767 9.85592 50.7086 10.1559 50.0846 10.7319C49.4606 11.3079 49.0526 12.0639 48.8846 12.9759C48.7166 13.8639 48.8486 14.5959 49.2926 15.1959C49.7246 15.7959 50.3606 16.0959 51.1767 16.0959ZM51.5126 15.0759C50.9487 15.0759 50.5406 14.8839 50.2766 14.4999C50.0126 14.1159 49.9407 13.6119 50.0606 12.9759C50.1806 12.3519 50.4566 11.8359 50.8647 11.4519C51.2727 11.0679 51.7646 10.8759 52.3286 10.8759C52.8806 10.8759 53.3006 11.0679 53.5646 11.4519C53.8286 11.8359 53.9007 12.3519 53.7807 12.9759C53.6487 13.6119 53.3727 14.1159 52.9646 14.4999C52.5566 14.8839 52.0647 15.0759 51.5126 15.0759Z" fill="#8A8F98"/>
<path d="M61.7979 16.0959C62.6619 16.0959 63.3939 15.8199 63.9939 15.2559C64.5939 14.6919 64.9899 13.9359 65.1819 12.9759C65.3499 12.0999 65.2059 11.3559 64.7739 10.7559C64.3299 10.1559 63.7059 9.85592 62.9019 9.85592C62.4939 9.85592 62.0979 9.95192 61.7139 10.1319C61.3299 10.3119 61.0299 10.5519 60.7899 10.8399L61.4619 7.41992H60.2979L58.6299 15.9999H59.7939L59.9619 15.0999C60.0819 15.3999 60.3099 15.6399 60.6579 15.8199C61.0059 16.0119 61.3899 16.0959 61.7979 16.0959ZM61.8219 15.0759C61.2459 15.0759 60.8139 14.8839 60.5259 14.4999C60.2379 14.1159 60.1539 13.5999 60.2859 12.9759C60.4059 12.3519 60.6819 11.8359 61.0899 11.4519C61.4979 11.0679 61.9899 10.8759 62.5539 10.8759C63.1059 10.8759 63.5259 11.0679 63.7899 11.4519C64.0539 11.8359 64.1259 12.3519 64.0059 12.9759C63.8739 13.6239 63.6099 14.1279 63.2259 14.5119C62.8419 14.8959 62.3739 15.0759 61.8219 15.0759Z" fill="#8A8F98"/>
<path d="M70.2848 9.95192L67.7648 14.5479L67.0808 9.95192H65.8808L66.9368 16.0839L65.6408 18.4479H66.8048L71.4608 9.95192H70.2848Z" fill="#8A8F98"/>
<path d="M77.3001 15.8818L77.7784 13.2H82.9586L83.2334 11.6545H78.0532L78.2262 10.6545H83.5387L83.8135 9.11818H76.2009L75 15.8818H77.3001ZM89.2278 16C93.9093 16 94.5098 13.8545 94.7133 12.6909C94.754 12.4364 94.7642 12.2 94.7642 11.9545C94.7642 10.7364 93.889 9 89.7977 9H89.3601C84.7091 9 84.0476 11.1273 83.8847 12.2364C83.8338 12.5636 83.8338 12.7909 83.8338 13C83.8338 14.2091 84.6786 16 88.7902 16H89.2278ZM89.0955 14.3545C86.8056 14.3545 86.3069 13.4545 86.3069 12.7182C86.3069 12.6182 86.3069 12.5273 86.3171 12.4091C86.3985 11.6364 86.9786 10.6364 89.5026 10.6364C91.7517 10.6364 92.3217 11.4273 92.3217 12.1727C92.3217 12.3091 92.3217 12.4 92.2911 12.5364C92.1588 13.3636 91.5889 14.3545 89.0955 14.3545ZM97.2576 15.8818L97.6851 13.4818H100.667C101.848 13.4818 102.163 13.8909 102.031 14.6818L101.898 15.4273C101.848 15.7091 101.878 15.8091 101.919 15.8818H104.27L104.28 15.8364C104.249 15.7273 104.188 15.5545 104.27 15.0727L104.473 13.9364C104.636 13.0636 104.015 12.6364 103.333 12.4455C104.005 12.2818 105.003 11.8 105.003 10.7545C105.003 9.87273 104.382 9.11818 102.153 9.11818H96.1483L94.9474 15.8818H97.2576ZM101.461 11.9818H97.9395L98.1838 10.6545H101.675C102.295 10.6545 102.519 10.8909 102.519 11.2455C102.519 11.6091 102.234 11.9818 101.461 11.9818ZM112.89 15.8818L113.165 14.3091H107.598L107.801 13.2H113.154L113.429 11.6545H108.076L108.249 10.6545H113.724L113.999 9.11818H106.244L105.043 15.8818H112.89ZM116.157 15.8818L116.635 13.2H121.815L122.09 11.6545H116.91L117.083 10.6545H122.395L122.67 9.11818H115.058L113.857 15.8818H116.157ZM124.757 15.8818L125.184 13.4818H128.166C129.346 13.4818 129.662 13.8909 129.53 14.6818L129.397 15.4273C129.346 15.7091 129.377 15.8091 129.418 15.8818H131.769L131.779 15.8364C131.748 15.7273 131.687 15.5545 131.769 15.0727L131.972 13.9364C132.135 13.0636 131.514 12.6364 130.832 12.4455C131.504 12.2818 132.501 11.8 132.501 10.7545C132.501 9.87273 131.881 9.11818 129.652 9.11818H123.647L122.446 15.8818H124.757ZM128.96 11.9818H125.438L125.683 10.6545H129.173C129.794 10.6545 130.018 10.8909 130.018 11.2455C130.018 11.6091 129.733 11.9818 128.96 11.9818ZM138.18 16C142.862 16 143.462 13.8545 143.666 12.6909C143.707 12.4364 143.717 12.2 143.717 11.9545C143.717 10.7364 142.842 9 138.75 9H138.313C133.662 9 133 11.1273 132.837 12.2364C132.786 12.5636 132.786 12.7909 132.786 13C132.786 14.2091 133.631 16 137.743 16H138.18ZM138.048 14.3545C135.758 14.3545 135.259 13.4545 135.259 12.7182C135.259 12.6182 135.259 12.5273 135.27 12.4091C135.351 11.6364 135.931 10.6364 138.455 10.6364C140.704 10.6364 141.274 11.4273 141.274 12.1727C141.274 12.3091 141.274 12.4 141.244 12.5364C141.111 13.3636 140.541 14.3545 138.048 14.3545ZM146.18 15.8818L146.984 11.3182L151.116 15.8818H153.385L154.586 9.11818H152.306L151.543 13.4636L147.676 9.11818H145.101L143.9 15.8818H146.18ZM159.675 15.8818L160.591 10.7182H163.715L164 9.11818H155.4L155.125 10.7182H158.25L157.334 15.8818H159.675Z" fill="white"/>
</svg>
